<svg version="1.2" xmlns="http://www.w3.org/2000/svg" viewBox="0 0 768 300" width="768" height="300">
	<title>finalLogo_edited</title>
	<defs>
		<linearGradient id="g1" x2="1" gradientUnits="userSpaceOnUse" gradientTransform="matrix(86.324,0,0,26.307,337.819,263.522)">
			<stop offset="0" stop-color="#dcc08e"/>
			<stop offset="1" stop-color="#b1925c"/>
		</linearGradient>
		<linearGradient id="g2" x2="1" gradientUnits="userSpaceOnUse" gradientTransform="matrix(194.741,0,0,129.761,283.61,9.42)">
			<stop offset="0" stop-color="#dcc08e"/>
			<stop offset="1" stop-color="#b1925c"/>
		</linearGradient>
	</defs>
	<style>
		.s0 { fill: #fefefe } 
		.s1 { fill: url(#g1) } 
		.s2 { fill: url(#g2) } 
	</style>
	<g id="_Artboards_">
	</g>
	<g id="Layer 1">
		<g id="&lt;Group&gt;">
			<path id="&lt;Compound Path&gt;" class="s0" d="m50.8 181.1l16.9-16.7q2.5-2.5 3.1-3.4 0.6-0.9 0.6-1.9 0-2-1.9-3-1-0.5-3.4-0.7v-0.9h17.2v0.9q-1.8 0.2-2.9 0.6-1.2 0.4-2.6 1.4-1.6 1.1-5.3 4.7l-12.9 12.4 18.3 23.4 2.3 2.9q2.5 3.1 5.2 4.9 1.6 1 2.9 1.5 1.2 0.5 3.1 0.7v0.9h-26.3v-0.9q3-0.2 4.3-1 1.3-0.8 1.3-2.2 0-1.6-1.7-4.1-0.8-1.2-2.9-4.1-2.2-3-3.7-4.8l-9-11.1-2.6 2.5v13.2q0 4.1 0.5 6 0.4 2 1.7 3.3 1 1.1 2.5 1.6 1.4 0.6 3.7 0.7v0.9h-25.5v-0.9q2.4-0.1 3.8-0.7 1.4-0.5 2.5-1.6 1.2-1.3 1.7-3.2 0.4-2 0.4-6.1v-29.3q0-4.1-0.4-6.1-0.5-1.9-1.7-3.2-1.1-1.1-2.6-1.7-1.4-0.5-3.7-0.6v-0.9h25.5v0.9q-2.3 0.1-3.7 0.6-1.4 0.6-2.5 1.7-1.3 1.3-1.7 3.3-0.5 1.9-0.5 6z"/>
			<path id="&lt;Compound Path&gt;" class="s0" d="m108.5 179.8h28.3v-12.8q0-4.1-0.5-6.1-0.4-1.9-1.7-3.2-1.1-1.1-2.5-1.7-1.4-0.5-3.7-0.6v-0.9h25.4v0.9q-2.3 0.1-3.7 0.6-1.4 0.6-2.5 1.7-1.2 1.3-1.7 3.3-0.4 1.9-0.4 6v29.3q0 4.1 0.4 6 0.5 2 1.7 3.3 1.1 1.1 2.5 1.6 1.4 0.6 3.7 0.7v0.9h-25.4v-0.9q2.3-0.1 3.7-0.7 1.4-0.5 2.5-1.6 1.3-1.3 1.7-3.2 0.5-2 0.5-6.1v-14.7h-28.3v14.7q0 4.1 0.5 6 0.4 2 1.7 3.3 1 1.1 2.5 1.6 1.4 0.6 3.7 0.7v0.9h-25.4v-0.9q2.3-0.1 3.7-0.7 1.4-0.5 2.5-1.6 1.2-1.3 1.7-3.2 0.4-2 0.4-6.1v-29.3q0-4.1-0.4-6.1-0.5-1.9-1.7-3.2-1.1-1.1-2.5-1.7-1.5-0.5-3.7-0.6v-0.9h25.4v0.9q-2.3 0.1-3.7 0.6-1.4 0.6-2.5 1.7-1.3 1.3-1.7 3.3-0.5 1.9-0.5 6z"/>
			<path id="&lt;Compound Path&gt;" fill-rule="evenodd" class="s0" d="m213.2 208.8h-26.2v-0.9q3.6-0.3 4.9-1.2 2.5-1.5 2.5-4.3 0-1.6-1.1-4.4l-0.7-1.6-3.8-9.4h-17.5l-2.1 5.5-1 2.4q-1.8 4.4-1.8 6.9 0 1.5 0.7 2.8 0.6 1.2 1.8 2 1.5 1.1 3.9 1.3v0.9h-17.8v-0.9q2.1-0.1 3.7-1 1.6-1 3.1-3 1.3-1.6 2.5-4.2 1.2-2.5 3.2-7.7l14.6-37.5h2.2l17.4 41.8q1.9 4.8 3.1 6.8 1.1 2 2.5 3 0.9 0.8 2.2 1.1 1.2 0.4 3.7 0.7zm-25-23.5l-8.4-20.6-7.9 20.6z"/>
			<path id="&lt;Compound Path&gt;" class="s0" d="m214.3 208.8v-0.9q4 0 6.2-2.3 1.2-1.3 1.7-3.3 0.4-1.9 0.4-6v-29.3q0-4.2-0.5-6.2-0.5-2.1-1.8-3.3-1.1-1.1-2.5-1.5-1.4-0.5-3.5-0.6v-0.9h25.4v0.9q-2.2 0.1-3.6 0.6-1.4 0.5-2.4 1.5-1.4 1.3-1.9 3.3-0.5 2-0.5 6.2v23q0 5.2 0.3 7.8 0.3 2.6 1.1 4.2 1.4 2.9 4.1 4.2 2.8 1.4 7.3 1.4 4.8 0 8-1.3 3.2-1.2 5.3-3.9 1.4-1.7 2.3-4 0.9-2.3 1.7-6l0.9 0.1-0.5 16.3z"/>
			<path id="&lt;Compound Path&gt;" class="s0" d="m289.4 154.5v0.9q-2.3 0.1-3.7 0.6-1.4 0.6-2.5 1.7-1.6 1.6-1.9 4.4-0.2 2.1-0.2 4.9v29.3q0 3.3 0.3 5.2 0.3 1.9 1 3.1 1 1.6 2.7 2.4 1.6 0.7 4.3 0.9v0.9h-25.4v-0.9q2.3-0.1 3.7-0.7 1.4-0.5 2.5-1.6 1.3-1.3 1.7-3.2 0.4-2 0.4-6.1v-29.3q0-4.1-0.4-6.1-0.4-1.9-1.7-3.2-1.1-1.1-2.5-1.7-1.5-0.5-3.7-0.6v-0.9z"/>
			<path id="&lt;Compound Path&gt;" class="s0" d="m293.3 208.8v-0.9q4 0 6.2-2.3 1.3-1.3 1.7-3.3 0.5-1.9 0.5-6v-29.3q0-4.2-0.5-6.2-0.5-2.1-1.9-3.3-1.1-1.1-2.5-1.5-1.3-0.5-3.5-0.6v-0.9h25.4v0.9q-2.1 0.1-3.5 0.6-1.4 0.5-2.5 1.5-1.4 1.3-1.8 3.3-0.5 2-0.5 6.2v23q0 5.2 0.3 7.8 0.2 2.6 1 4.2 1.4 2.9 4.2 4.2 2.7 1.4 7.3 1.4 4.7 0 7.9-1.3 3.3-1.2 5.4-3.9 1.3-1.7 2.2-4 0.9-2.3 1.7-6l0.9 0.1-0.5 16.3z"/>
			<path id="&lt;Compound Path&gt;" fill-rule="evenodd" class="s0" d="m381.4 175.7l13.3 18.5q2.8-5.2 3.9-8 1.1-2.8 1.1-4.7 0-3.8-5.5-4.6v-0.9h15.5v0.8q-1.9 0.2-3 0.6-1.2 0.5-2.2 1.4-2 2-5 8.2l-1.2 2.5q-1 2.2-2.9 5.6 1.5 2 3.5 4.3 2.1 2.3 3.7 3.8 2.2 2 3.9 3 1.7 0.9 3.3 0.9 1.7 0 2.9-1 1.1-0.9 2-3.1l0.8 0.4q-2 6.8-8.6 6.8-2.2 0-4.5-0.9-2.4-0.8-4.4-2.3-3-2.2-6.2-6-1.7 2.6-2.8 3.8-2.3 2.6-5.4 4-3.1 1.4-6.6 1.4-3.2 0-6.3-1.2-3-1.2-4.9-3.3-3.5-3.8-3.5-9.5 0-5.7 3.4-10.4 1.4-1.8 3.2-3.4 1.9-1.6 5.2-3.8l0.7-0.4q-2.5-3.5-3.5-5.6-2.5-4.7-2.5-8.4 0-2.3 1.2-4.5 1.4-3 4.1-4.6 2.7-1.5 6.5-1.5 4.9 0 8.1 2.7 3.2 2.6 3.2 6.9 0 3.1-1.6 5.5-1.7 2.4-5.4 4.7-2.5 1.7-3.5 2.3zm-5.7 3.6q-3.3 2-5.2 5.6-1.8 3.7-1.8 8.1 0 3.1 1 5.9 0.9 2.9 2.6 4.9 1.5 1.8 3.6 2.8 2.1 1 4.5 1 3.7 0 6.6-2.3 1.1-0.9 1.9-2 0.9-1.1 2.2-3.1zm5-4.4q1.9-1.5 2.8-2.6 0.9-1.1 1.7-2.7 1.4-2.9 1.4-6.3 0-4-2-6.3-1.9-2.4-5.1-2.4-2.8 0-4.5 1.8-1.7 1.8-1.7 4.7 0 1.7 0.7 3.4 0.7 1.7 2.7 4.7 1.8 2.8 4 5.7z"/>
			<path id="&lt;Compound Path&gt;" class="s0" d="m455.7 181.1l16.9-16.7q2.5-2.5 3.1-3.4 0.6-0.9 0.6-1.9 0-2-1.9-3-1-0.5-3.3-0.7v-0.9h17.1v0.9q-1.7 0.2-2.9 0.6-1.2 0.4-2.6 1.4-1.5 1.1-5.3 4.7l-12.9 12.4 18.3 23.4 2.3 2.9q2.5 3.1 5.2 4.9 1.6 1 2.9 1.5 1.2 0.5 3.1 0.7v0.9h-26.3v-0.9q3-0.2 4.3-1 1.3-0.8 1.3-2.2 0-1.6-1.6-4.1-0.8-1.2-3-4.1-2.2-3-3.7-4.8l-9-11.1-2.6 2.5v13.2q0 4.1 0.5 6 0.4 2 1.7 3.3 1.1 1.1 2.5 1.6 1.4 0.6 3.7 0.7v0.9h-25.4v-0.9q2.3-0.1 3.7-0.7 1.4-0.5 2.5-1.6 1.2-1.3 1.7-3.2 0.4-2 0.4-6.1v-29.3q0-4.1-0.4-6.1-0.5-1.9-1.7-3.2-1.1-1.1-2.5-1.7-1.5-0.5-3.7-0.6v-0.9h25.4v0.9q-2.3 0.1-3.7 0.6-1.4 0.6-2.5 1.7-1.3 1.3-1.7 3.3-0.5 1.9-0.5 6z"/>
			<path id="&lt;Compound Path&gt;" class="s0" d="m513.4 179.8h28.3v-12.8q0-4.1-0.5-6.1-0.4-1.9-1.7-3.2-1.1-1.1-2.5-1.7-1.4-0.5-3.7-0.6v-0.9h25.4v0.9q-2.2 0.1-3.7 0.6-1.4 0.6-2.5 1.7-1.2 1.3-1.7 3.3-0.4 1.9-0.4 6v29.3q0 4.1 0.4 6 0.5 2 1.7 3.3 1.1 1.1 2.5 1.6 1.5 0.6 3.7 0.7v0.9h-25.4v-0.9q2.3-0.1 3.7-0.7 1.4-0.5 2.5-1.6 1.3-1.3 1.7-3.2 0.5-2 0.5-6.1v-14.7h-28.3v14.7q0 4.1 0.5 6 0.4 2 1.7 3.3 1.1 1.1 2.5 1.6 1.4 0.6 3.7 0.7v0.9h-25.4v-0.9q2.3-0.1 3.7-0.7 1.4-0.5 2.5-1.6 1.2-1.3 1.7-3.2 0.4-2 0.4-6.1v-29.3q0-4.1-0.4-6.1-0.5-1.9-1.7-3.2-1.1-1.1-2.5-1.7-1.5-0.5-3.7-0.6v-0.9h25.4v0.9q-2.3 0.1-3.7 0.6-1.4 0.6-2.5 1.7-1.3 1.3-1.7 3.3-0.5 1.9-0.5 6z"/>
			<path id="&lt;Compound Path&gt;" fill-rule="evenodd" class="s0" d="m618.1 208.8h-26.2v-0.9q3.6-0.3 5-1.2 2.4-1.5 2.4-4.3 0-1.6-1.1-4.4l-0.7-1.6-3.8-9.4h-17.5l-2.1 5.5-1 2.4q-1.8 4.4-1.8 6.9 0 1.5 0.7 2.8 0.7 1.2 1.8 2 1.5 1.1 3.9 1.3v0.9h-17.8v-0.9q2.1-0.1 3.7-1 1.6-1 3.1-3 1.3-1.6 2.5-4.2 1.2-2.5 3.2-7.7l14.6-37.5h2.3l17.3 41.8q1.9 4.8 3.1 6.8 1.1 2 2.5 3 0.9 0.8 2.2 1.1 1.2 0.4 3.7 0.7zm-25-23.5l-8.4-20.6-7.9 20.6z"/>
			<path id="&lt;Compound Path&gt;" class="s0" d="m619.2 208.8v-0.9q4 0 6.2-2.3 1.2-1.3 1.7-3.3 0.4-1.9 0.4-6v-29.3q0-4.2-0.5-6.2-0.5-2.1-1.8-3.3-1.1-1.1-2.5-1.5-1.4-0.5-3.5-0.6v-0.9h25.4v0.9q-2.2 0.1-3.6 0.6-1.4 0.5-2.4 1.5-1.4 1.3-1.9 3.3-0.4 2-0.4 6.2v23q0 5.2 0.2 7.8 0.3 2.6 1.1 4.2 1.4 2.9 4.1 4.2 2.8 1.4 7.3 1.4 4.8 0 8-1.3 3.3-1.2 5.3-3.9 1.4-1.7 2.3-4 0.9-2.3 1.7-6l0.9 0.1-0.5 16.3z"/>
			<path id="&lt;Compound Path&gt;" class="s0" d="m694.3 154.5v0.9q-2.2 0.1-3.7 0.6-1.4 0.6-2.5 1.7-1.5 1.6-1.9 4.4-0.2 2.1-0.2 4.9v29.3q0 3.3 0.3 5.2 0.3 1.9 1 3.1 1 1.6 2.7 2.4 1.6 0.7 4.3 0.9v0.9h-25.4v-0.9q2.3-0.1 3.7-0.7 1.4-0.5 2.5-1.6 1.3-1.3 1.7-3.2 0.4-2 0.4-6.1v-29.3q0-4.1-0.4-6.1-0.4-1.9-1.7-3.2-1.1-1.1-2.5-1.7-1.4-0.5-3.7-0.6v-0.9z"/>
			<path id="&lt;Compound Path&gt;" class="s0" d="m698.2 208.8v-0.9q4 0 6.2-2.3 1.3-1.3 1.7-3.3 0.5-1.9 0.5-6v-29.3q0-4.2-0.5-6.2-0.5-2.1-1.9-3.3-1.1-1.1-2.5-1.5-1.3-0.5-3.5-0.6v-0.9h25.4v0.9q-2.1 0.1-3.5 0.6-1.4 0.5-2.5 1.5-1.4 1.3-1.8 3.3-0.5 2-0.5 6.2v23q0 5.2 0.3 7.8 0.2 2.6 1 4.2 1.4 2.9 4.2 4.2 2.7 1.4 7.3 1.4 4.7 0 7.9-1.3 3.3-1.2 5.4-3.9 1.4-1.7 2.2-4 0.9-2.3 1.7-6l1 0.1-0.6 16.3z"/>
		</g>
		<g id="&lt;Group&gt;">
			<path id="&lt;Compound Path&gt;" class="s0" d="m88 251.5q-1.7-2.7-2.6-6.1-0.9-3.5-0.9-7.5 0-4.1 0.9-7.6 0.9-3.5 2.6-6.1h2.6q-1.7 3.1-2.6 6.5-0.8 3.4-0.8 7.2 0 3.8 0.8 7.1 0.9 3.4 2.6 6.5z"/>
			<path id="&lt;Compound Path&gt;" fill-rule="evenodd" class="s0" d="m91.8 247.8l9.2-20.4h2.9l9.3 20.4h-3.1l-2.2-5.1h0.9l-0.8-2.3h-1.2l-4.3-10-4.4 10h-1.6l-0.8 2.3h1.3l-2.2 5.1zm5.2-5.1l1.1-2.3h8.7l1.1 2.3z"/>
			<path id="&lt;Compound Path&gt;" fill-rule="evenodd" class="s0" d="m116.2 247.8v-20.4h8.6q3.2 0 5.7 1.3 2.5 1.3 3.9 3.6 1.4 2.3 1.4 5.3 0 3-1.4 5.3-1.4 2.3-3.9 3.6-2.5 1.3-5.7 1.3zm2.9-2.5h5.5q2.5 0 4.4-1 1.8-1 2.8-2.7 1.1-1.7 1.1-4 0-2.3-1.1-4-1-1.7-2.8-2.7-1.9-1-4.4-1h-5.5z"/>
			<path id="&lt;Compound Path&gt;" class="s0" d="m145.5 247.8l-9-20.4h3.2l8.2 18.8h-1.8l8.3-18.8h2.9l-8.9 20.4z"/>
			<path id="&lt;Compound Path&gt;" fill-rule="evenodd" class="s0" d="m168.9 248q-2.3 0-4.3-0.8-2-0.7-3.5-2.2-1.4-1.4-2.2-3.3-0.9-1.9-0.9-4.1 0-2.2 0.9-4.1 0.8-1.9 2.2-3.3 1.5-1.4 3.5-2.2 1.9-0.8 4.3-0.8 2.3 0 4.3 0.8 2 0.7 3.4 2.1 1.5 1.4 2.3 3.3 0.8 1.9 0.8 4.2 0 2.3-0.8 4.2-0.8 1.9-2.3 3.3-1.4 1.4-3.4 2.2-2 0.7-4.3 0.7zm0-2.6q1.7 0 3.1-0.5 1.5-0.6 2.5-1.7 1.1-1.1 1.7-2.5 0.6-1.4 0.6-3.1 0-1.7-0.6-3.1-0.6-1.4-1.7-2.5-1-1.1-2.5-1.6-1.4-0.6-3.1-0.6-1.7 0-3.2 0.6-1.4 0.5-2.5 1.6-1.1 1.1-1.7 2.5-0.6 1.4-0.6 3.1 0 1.7 0.6 3.1 0.6 1.4 1.7 2.5 1.1 1.1 2.5 1.7 1.5 0.5 3.2 0.5z"/>
			<path id="&lt;Compound Path&gt;" class="s0" d="m193.3 248q-2.4 0-4.3-0.7-2-0.8-3.4-2.2-1.5-1.4-2.3-3.3-0.8-1.9-0.8-4.2 0-2.3 0.8-4.2 0.8-1.9 2.3-3.3 1.4-1.4 3.4-2.1 2-0.8 4.3-0.8 2.4 0 4.3 0.8 2 0.8 3.4 2.4l-1.9 1.8q-1.1-1.2-2.6-1.8-1.4-0.6-3.1-0.6-1.7 0-3.2 0.6-1.4 0.5-2.5 1.6-1.1 1-1.7 2.5-0.6 1.4-0.6 3.1 0 1.7 0.6 3.1 0.6 1.5 1.7 2.5 1.1 1.1 2.5 1.7 1.5 0.5 3.2 0.5 1.7 0 3.1-0.6 1.5-0.6 2.6-1.8l1.9 1.8q-1.4 1.6-3.4 2.4-1.9 0.8-4.3 0.8z"/>
			<path id="&lt;Compound Path&gt;" fill-rule="evenodd" class="s0" d="m201.6 247.8l9.3-20.4h2.8l9.3 20.4h-3.1l-2.2-5.1h1l-0.9-2.3h-1.1l-4.4-10-4.4 10h-1.6l-0.7 2.3h1.3l-2.3 5.1zm5.3-5.1l1-2.3h8.8l1 2.3z"/>
			<path id="&lt;Compound Path&gt;" class="s0" d="m229 247.8v-17.9h-6.9v-2.5h16.8v2.5h-7v17.9z"/>
			<path id="&lt;Compound Path&gt;" fill-rule="evenodd" class="s0" d="m245 245.3h11.9v2.5h-14.8v-20.4h14.4v2.5h-11.5v6.3h-0.3v2.5h0.3zm0-6.6v-2.5h10.2v2.5z"/>
			<path id="&lt;Compound Path&gt;" class="s0" d="m267.5 248q-2.3 0-4.4-0.7-2.1-0.7-3.4-1.8l1.1-2.3q1.2 1 3 1.7 1.8 0.7 3.7 0.7 1.8 0 2.9-0.5 1.1-0.4 1.7-1.1 0.5-0.7 0.5-1.6 0-1-0.7-1.7-0.7-0.6-1.8-1-1.1-0.4-2.4-0.7-1.3-0.3-2.6-0.7-1.3-0.4-2.4-1-1.1-0.6-1.8-1.6-0.7-1.1-0.7-2.7 0-1.6 0.9-2.9 0.8-1.3 2.5-2.1 1.8-0.8 4.4-0.8 1.8 0 3.6 0.4 1.7 0.5 3 1.4l-1 2.3q-1.3-0.9-2.7-1.3-1.5-0.3-2.9-0.3-1.7 0-2.8 0.4-1.1 0.4-1.6 1.2-0.5 0.7-0.5 1.6 0 1.1 0.7 1.7 0.7 0.6 1.7 1 1.1 0.4 2.4 0.7 1.4 0.3 2.7 0.7 1.3 0.4 2.4 1 1.1 0.6 1.8 1.6 0.6 1 0.6 2.6 0 1.6-0.8 2.9-0.9 1.3-2.6 2.1-1.8 0.8-4.5 0.8z"/>
			<path id="&lt;Compound Path&gt;" fill-rule="evenodd" class="s0" d="m284.4 247.8l9.3-20.4h2.8l9.3 20.4h-3.1l-2.2-5.1h1l-0.9-2.3h-1.1l-4.4-10-4.4 10h-1.6l-0.7 2.3h1.3l-2.3 5.1zm5.3-5.1l1-2.3h8.8l1 2.3z"/>
			<path id="&lt;Compound Path&gt;" class="s0" d="m308.8 247.8v-20.4h2.4l13.5 16.8h-1.3v-16.8h3v20.4h-2.4l-13.5-16.7h1.2v16.7z"/>
			<path id="&lt;Compound Path&gt;" fill-rule="evenodd" class="s0" d="m332.5 247.8v-20.4h8.6q3.2 0 5.7 1.3 2.5 1.3 3.9 3.6 1.4 2.3 1.4 5.3 0 3-1.4 5.3-1.4 2.3-3.9 3.6-2.5 1.3-5.7 1.3zm2.9-2.5h5.5q2.5 0 4.4-1 1.8-1 2.8-2.7 1-1.7 1-4 0-2.3-1-4-1-1.7-2.8-2.7-1.9-1-4.4-1h-5.5z"/>
			<path id="&lt;Compound Path&gt;" class="s0" d="m364.3 247.8v-20.4h3v17.9h11v2.5z"/>
			<path id="&lt;Compound Path&gt;" fill-rule="evenodd" class="s0" d="m384.6 245.3h11.8v2.5h-14.8v-20.4h14.4v2.5h-11.4v6.3h-0.3v2.5h0.3zm0-6.6v-2.5h10.2v2.5z"/>
			<path id="&lt;Compound Path&gt;" fill-rule="evenodd" class="s0" d="m410.3 248q-2.3 0-4.3-0.7-2-0.8-3.5-2.2-1.4-1.4-2.2-3.3-0.8-1.9-0.8-4.2 0-2.3 0.8-4.2 0.8-1.9 2.3-3.3 1.4-1.4 3.4-2.1 2-0.8 4.4-0.8 2.4 0 4.4 0.8 2 0.8 3.4 2.3l-1.8 1.8q-1.2-1.2-2.7-1.8-1.5-0.5-3.2-0.5-1.7 0-3.2 0.6-1.5 0.5-2.6 1.6-1.1 1-1.7 2.5-0.6 1.4-0.6 3.1 0 1.7 0.6 3.1 0.6 1.4 1.7 2.5 1.1 1.1 2.5 1.7 1.5 0.5 3.3 0.5 1.6 0 3.1-0.5 0.9-0.3 1.6-0.8v1l2.8 0.3q-1.5 1.3-3.5 2-2 0.6-4.2 0.6zm4.9-3.9v-6.6h2.8v7.9l-1.6-2.2q-0.6 0.5-1.2 0.9z"/>
			<path id="&lt;Compound Path&gt;" fill-rule="evenodd" class="s0" d="m420.5 247.8l9.2-20.4h2.9l9.3 20.4h-3.1l-2.2-5.1h0.9l-0.8-2.3h-1.1l-4.4-10-4.4 10h-1.6l-0.8 2.3h1.4l-2.3 5.1zm5.3-5.1l1-2.3h8.8l1 2.3z"/>
			<path id="&lt;Compound Path&gt;" class="s0" d="m444.9 247.8v-20.4h2.9v17.9h11.1v2.5z"/>
			<path id="&lt;Compound Path&gt;" class="s0" d="m479.2 248q-2.4 0-4.3-0.7-2-0.8-3.4-2.2-1.5-1.4-2.3-3.3-0.8-1.9-0.8-4.2 0-2.3 0.8-4.2 0.8-1.9 2.3-3.3 1.4-1.4 3.4-2.1 2-0.8 4.3-0.8 2.3 0 4.3 0.8 2 0.8 3.4 2.4l-1.9 1.8q-1.1-1.2-2.6-1.8-1.4-0.6-3.1-0.6-1.7 0-3.2 0.6-1.5 0.5-2.5 1.6-1.1 1-1.7 2.5-0.6 1.4-0.6 3.1 0 1.7 0.6 3.1 0.6 1.5 1.7 2.5 1 1.1 2.5 1.7 1.5 0.5 3.2 0.5 1.7 0 3.1-0.6 1.5-0.6 2.6-1.8l1.9 1.8q-1.4 1.6-3.4 2.4-2 0.8-4.3 0.8z"/>
			<path id="&lt;Compound Path&gt;" fill-rule="evenodd" class="s0" d="m499.9 248q-2.4 0-4.4-0.8-2-0.7-3.4-2.2-1.5-1.4-2.3-3.3-0.8-1.9-0.8-4.1 0-2.2 0.8-4.1 0.8-1.9 2.3-3.3 1.4-1.4 3.4-2.2 2-0.8 4.4-0.8 2.3 0 4.2 0.8 2 0.7 3.5 2.1 1.5 1.4 2.3 3.3 0.8 1.9 0.8 4.2 0 2.3-0.8 4.2-0.8 1.9-2.3 3.3-1.5 1.4-3.5 2.2-1.9 0.7-4.2 0.7zm0-2.6q1.6 0 3.1-0.5 1.4-0.6 2.5-1.7 1.1-1.1 1.6-2.5 0.6-1.4 0.6-3.1 0-1.7-0.6-3.1-0.5-1.4-1.6-2.5-1.1-1.1-2.5-1.6-1.5-0.6-3.1-0.6-1.8 0-3.2 0.6-1.4 0.5-2.5 1.6-1.1 1.1-1.7 2.5-0.6 1.4-0.6 3.1 0 1.7 0.6 3.1 0.6 1.4 1.7 2.5 1.1 1.1 2.5 1.7 1.4 0.5 3.2 0.5z"/>
			<path id="&lt;Compound Path&gt;" class="s0" d="m515.1 247.8v-20.4h2.4l13.5 16.8h-1.3v-16.8h2.9v20.4h-2.3l-13.5-16.7h1.2v16.7z"/>
			<path id="&lt;Compound Path&gt;" class="s0" d="m544.7 248q-2.3 0-4.5-0.7-2.1-0.7-3.3-1.8l1.1-2.3q1.1 1 2.9 1.7 1.8 0.7 3.8 0.7 1.8 0 2.9-0.5 1.1-0.4 1.6-1.1 0.5-0.7 0.5-1.6 0-1-0.7-1.7-0.6-0.6-1.7-1-1.1-0.4-2.4-0.7-1.3-0.3-2.7-0.7-1.3-0.4-2.4-1-1.1-0.6-1.7-1.6-0.7-1.1-0.7-2.7 0-1.6 0.8-2.9 0.8-1.3 2.6-2.1 1.7-0.8 4.4-0.8 1.8 0 3.5 0.4 1.8 0.5 3 1.4l-0.9 2.3q-1.3-0.9-2.8-1.3-1.4-0.3-2.8-0.3-1.7 0-2.8 0.4-1.1 0.4-1.7 1.2-0.5 0.7-0.5 1.6 0 1.1 0.7 1.7 0.7 0.6 1.8 1 1.1 0.4 2.4 0.7 1.3 0.3 2.6 0.7 1.4 0.4 2.5 1 1 0.6 1.7 1.6 0.7 1 0.7 2.6 0 1.6-0.9 2.9-0.8 1.3-2.6 2.1-1.7 0.8-4.4 0.8z"/>
			<path id="&lt;Compound Path&gt;" class="s0" d="m565.3 248q-4 0-6.3-2.3-2.3-2.3-2.3-6.7v-11.6h2.9v11.5q0 3.4 1.5 5 1.5 1.5 4.2 1.5 2.8 0 4.3-1.5 1.5-1.6 1.5-5v-11.5h2.8v11.6q0 4.4-2.3 6.7-2.3 2.3-6.3 2.3z"/>
			<path id="&lt;Compound Path&gt;" class="s0" d="m579.9 247.8v-20.4h2.9v17.9h11v2.5z"/>
			<path id="&lt;Compound Path&gt;" class="s0" d="m599.3 247.8v-17.9h-7v-2.5h16.9v2.5h-7v17.9z"/>
			<path id="&lt;Compound Path&gt;" fill-rule="evenodd" class="s0" d="m608.3 247.8l9.2-20.4h2.9l9.2 20.4h-3l-2.3-5.1h1l-0.9-2.3h-1.1l-4.4-10-4.4 10h-1.5l-0.8 2.3h1.3l-2.2 5.1zm5.2-5.1l1-2.3h8.8l1 2.3z"/>
			<path id="&lt;Compound Path&gt;" class="s0" d="m632.7 247.8v-20.4h2.3l13.5 16.8h-1.2v-16.8h2.9v20.4h-2.4l-13.5-16.7h1.3v16.7z"/>
			<path id="&lt;Compound Path&gt;" class="s0" d="m660.3 247.8v-17.9h-6.9v-2.5h16.8v2.5h-7v17.9z"/>
			<path id="&lt;Compound Path&gt;" class="s0" d="m679.1 248q-2.4 0-4.5-0.7-2.1-0.7-3.3-1.8l1-2.3q1.2 1 3 1.7 1.8 0.7 3.8 0.7 1.7 0 2.8-0.5 1.2-0.4 1.7-1.1 0.5-0.7 0.5-1.6 0-1-0.7-1.7-0.7-0.6-1.8-1-1.1-0.4-2.4-0.7-1.3-0.3-2.6-0.7-1.3-0.4-2.4-1-1.1-0.6-1.8-1.6-0.6-1.1-0.6-2.7 0-1.6 0.8-2.9 0.8-1.3 2.5-2.1 1.8-0.8 4.5-0.8 1.7 0 3.5 0.4 1.7 0.5 3 1.4l-1 2.3q-1.3-0.9-2.7-1.3-1.5-0.3-2.8-0.3-1.8 0-2.9 0.4-1.1 0.4-1.6 1.2-0.5 0.7-0.5 1.6 0 1.1 0.7 1.7 0.7 0.6 1.8 1 1.1 0.4 2.4 0.7 1.3 0.3 2.6 0.7 1.3 0.4 2.4 1 1.1 0.6 1.8 1.6 0.7 1 0.7 2.6 0 1.6-0.9 2.9-0.8 1.3-2.6 2.1-1.8 0.8-4.4 0.8z"/>
			<path id="&lt;Compound Path&gt;" class="s0" d="m692 251.5h-2.6q1.7-3.1 2.6-6.5 0.8-3.3 0.8-7.1 0-3.8-0.8-7.2-0.9-3.4-2.6-6.5h2.6q1.7 2.6 2.6 6.1 0.9 3.5 0.9 7.6 0 4-0.9 7.5-0.9 3.4-2.6 6.1z"/>
		</g>
		<path id="&lt;Path&gt;" class="s1" d="m411.9 271.5h-24.8v-7.6q0.5-0.2 1.1-0.4h-14.4q0.5 0.2 1.1 0.4v7.6h-24.8v9.2h-12.3v9.1h86.3v-9.1h-12.2z"/>
		<path id="&lt;Compound Path&gt;" fill-rule="evenodd" class="s2" d="m478.4 120.9v5.8h-3.4c-2.5 7.3-9.5 12.5-17.6 12.5-8.2 0-15.1-5.2-17.7-12.5h-3.3v-5.8h3.6l16.7-67.6q-0.8 0-1.6-0.2c-4.6 7.4-14.7 12.5-26.5 12.5-14.4 0-26.4-7.7-28.7-17.8h-9.2c-0.9 2-2.4 3.7-4.3 4.8v16.4h4.7v6.6h-1.6v20.1h1.6v6.6h-4v35.2h-12.2v-35.2h-4.1v-6.6h1.7v-20.1h-1.7v-6.6h4.7v-16.4c-1.9-1.1-3.4-2.8-4.2-4.8h-9.2c-2.4 10.1-14.3 17.8-28.8 17.8-11.7 0-21.9-5.1-26.5-12.5q-0.7 0.2-1.6 0.2l16.8 67.6h3.5v5.8h-3.3c-2.5 7.3-9.5 12.5-17.6 12.5-8.2 0-15.1-5.2-17.7-12.5h-3.3v-5.8h3.6l16.7-67.6q-0.1 0-0.2-0.1c-3.5-0.5-6.1-3.5-6.3-7-0.2-4.4 3.4-8.1 7.8-7.9 3.8 0.2 6.9 3.2 7.2 6.9 0.1 1.4-0.1 2.7-0.7 3.8 3.1 6 11.6 10.3 21.6 10.3 10.9 0 20-5 22.3-11.8q0-0.2 0.1-0.4 0-0.1 0-0.1 0.1-0.2 0.1-0.3 0-0.1 0-0.2 0.1-0.1 0.1-0.2 0-0.1 0-0.3 0 0 0.1-0.1 0-0.1 0-0.3 0 0 0-0.1 0.1-0.5 0.1-1.1 0-0.1 0-0.2 0 0 0-0.1c0-1.9 1.6-3.5 3.5-3.5h11.3c0.8-2.5 2.4-4.6 4.6-5.9v-10.9h-5.1v-7.1h3.1c0.1-4 3.4-7.3 7.5-7.3 4 0 7.3 3.3 7.4 7.3h3.1v7.1h-5.1v10.9c2.2 1.3 3.8 3.4 4.6 5.9h11.3c2 0 3.6 1.6 3.6 3.5q0 0.1 0 0.1 0 0.1 0 0.2 0 0.6 0 1.1 0.1 0.1 0.1 0.1 0 0.2 0 0.3 0 0.1 0 0.1 0.1 0.2 0.1 0.3 0 0.1 0 0.2 0 0.1 0.1 0.2 0 0.1 0 0.3 0.1 0 0.1 0.1 0 0.2 0.1 0.4c2.3 6.8 11.4 11.8 22.2 11.8 10.1 0 18.6-4.3 21.6-10.3-0.5-1.1-0.7-2.4-0.6-3.8 0.2-3.7 3.4-6.7 7.1-6.9 4.5-0.2 8.1 3.5 7.9 7.9-0.2 3.5-2.8 6.5-6.3 7q-0.1 0.1-0.3 0.1l16.8 67.6zm-173.8-65l-16.1 65h32.2zm3.8-10.1q0-0.8-0.3-1.5c-0.5-1.2-1.7-2-3.1-2-2 0-3.5 1.6-3.5 3.5 0 1.9 1.5 3.5 3.5 3.5q0 0 0.1 0c1.8-0.1 3.3-1.6 3.3-3.5zm148.6 3.5q0.1 0 0.1 0c1.9 0 3.5-1.6 3.5-3.5 0-1.9-1.6-3.5-3.5-3.5-1.4 0-2.6 0.8-3.1 2q-0.4 0.7-0.4 1.5c0 1.9 1.5 3.4 3.4 3.5zm16.6 71.6l-16.2-65-16.1 65z"/>
	</g>
</svg>